<svg width="561" height="513" xmlns="http://www.w3.org/2000/svg" stroke="null">
 <g id="Layer_1">
  <title>Layer 1</title>
  <g stroke="null" id="svg_1">
   <metadata stroke="null" id="svg_4">image/svg+xml</metadata>
   <g stroke="null" id="svg_2">
    <path stroke="null" stroke-dashoffset="0" stroke-miterlimit="2" stroke-linejoin="round" stroke-width="3" fill-rule="nonzero" fill="#000000" id="svg_3" d="m478.43823,1594.76768l0,21.31923l-56.94864,0c12.46045,7.10652 22.63331,16.08687 30.51863,26.94109c7.88506,10.85439 11.82765,22.36579 11.82779,34.53424c-0.00014,15.86778 -6.25475,29.00976 -18.76385,39.42598c-12.50934,10.41625 -26.69781,15.62437 -42.56546,15.62437c-18.78824,0 -34.99669,-7.37411 -48.62538,-22.12236c-13.62875,-14.7482 -20.44311,-31.90579 -20.4431,-51.47281c-0.00001,-13.82335 3.57753,-26.04052 10.73263,-36.65156c7.15506,-10.61083 15.47831,-17.86325 24.96979,-21.7573c9.49138,-3.89379 22.31698,-5.84075 38.47684,-5.84089l70.82075,0l0,0.00001zm-66.73213,21.31923l-5.11078,0c-14.60228,0.00011 -26.25971,3.62633 -34.97231,10.87865c-8.7127,7.25253 -13.06902,18.61791 -13.06898,34.09617c-0.00004,16.45188 4.57532,30.98107 13.72608,43.58761c9.15066,12.60659 19.85894,18.90988 32.12487,18.90987c9.83207,0.00001 17.96063,-4.74571 24.3857,-14.23716c6.42486,-9.49141 9.63735,-20.95414 9.63746,-34.38822c-0.00012,-21.31916 -8.90746,-40.93478 -26.72205,-58.84693l0,0l0.00001,0.00001z"/>
   </g>
  </g>
  <g stroke="null" id="svg_5">
   <metadata stroke="null" id="svg_9" fill="#1e7d9a">image/svg+xml</metadata>
   <g stroke="null" id="svg_7">
    <path stroke="null" stroke-dashoffset="0" stroke-miterlimit="2" stroke-linejoin="round" stroke-width="3" fill-rule="nonzero" fill="#786355" id="svg_8" d="m562.00002,0l0,79.3411l-220.33233,0c48.20904,26.44743 87.56751,59.86847 118.07553,100.26324c30.50702,40.39541 45.76078,83.23593 45.76133,128.52171c-0.00055,59.0531 -24.19942,107.96194 -72.59668,146.72669c-48.39821,38.76483 -103.29292,58.14723 -164.68429,58.14724c-72.69107,-0.00001 -135.40098,-27.44331 -188.12991,-82.32997c-52.72917,-54.88652 -79.0937,-118.73974 -79.09366,-191.55984c-0.00004,-51.4446 13.84133,-96.91172 41.52417,-136.40148c27.68267,-39.48897 59.88506,-66.47941 96.60725,-80.97139c36.72184,-14.49103 86.34364,-21.73679 148.86556,-21.73729l274.00303,0l0,-0.00001zm-258.1843,79.3411l-19.77341,0c-56.49574,0.00042 -101.59791,13.49564 -135.30665,40.4857c-33.70912,26.99082 -50.56359,69.28791 -50.56345,126.89141c-0.00014,61.22688 17.70176,115.29833 53.10574,162.2145c35.4036,46.91635 76.83357,70.37449 124.29003,70.37447c38.03993,0.00002 69.48904,-17.66151 94.34743,-52.98464c24.85757,-35.32298 37.28656,-77.98237 37.28701,-127.97828c-0.00045,-79.34082 -34.46265,-152.3418 -103.38671,-219.00317l0,0l0.00001,0.00001z"/>
   </g>
  </g>
 </g>

</svg>